<svg width="892" height="210" viewBox="0 0 892 210" fill="none" xmlns="http://www.w3.org/2000/svg">
<g clip-path="url(#clip0_5_2)">
<path d="M122.72 29.7214C123.233 29.8361 123.741 29.9573 124.24 30.085C124.739 30.2126 125.232 30.3483 125.717 30.4921V31.6473H114.496V30.4921L118.858 29.6843L110.336 5.18786H111.235L102.372 29.5987C103.256 29.7139 104.118 29.8496 104.957 30.0058C105.796 30.162 106.645 30.3262 107.506 30.4985V31.6537H96.714V30.4985L99.5832 29.5567L109.26 3.9034H113.201L122.72 29.7214ZM103.963 22.3977V20.2133H118.138V22.3977H103.963Z" fill="black"/>
<path d="M170.337 30.665L170.807 4.71125L168.665 1.75622C169.453 1.28929 170.285 0.901776 171.149 0.599408C171.997 0.309697 172.873 0.108814 173.762 0V30.0656L170.337 30.665ZM170.337 30.665L171.791 28.4806C172.782 28.8456 173.798 29.1388 174.831 29.3579C175.648 29.5331 176.481 29.6262 177.316 29.6358C178.296 29.6915 179.277 29.5261 180.185 29.152C181.093 28.7778 181.905 28.2044 182.562 27.4741C183.897 25.7469 184.559 23.593 184.424 21.4138C184.436 20.066 184.248 18.724 183.867 17.4312C183.497 16.2072 182.934 15.0502 182.198 14.0044L184.168 15.9319C182.597 14.4869 180.562 13.6515 178.429 13.5763C176.585 13.6481 174.819 14.343 173.421 15.5474L173.379 14.6054C174.134 13.7878 174.957 13.0355 175.839 12.3565C176.67 11.7217 177.551 11.1559 178.474 10.6649C178.571 10.6354 178.672 10.6212 178.773 10.6229H179.074C180.687 10.5855 182.272 11.0489 183.612 11.9493C184.925 12.8692 185.956 14.137 186.589 15.6104C187.32 17.4086 187.675 19.3369 187.635 21.2773C187.594 23.2178 187.158 25.1296 186.353 26.8957C185.549 28.4969 184.28 29.818 182.712 30.686C181.013 31.588 179.111 32.0375 177.188 31.9914C176.089 31.9838 174.992 31.8757 173.912 31.6683C172.694 31.4374 171.497 31.1017 170.337 30.665Z" fill="black"/>
<path d="M231.148 31.6489V30.665C231.604 30.4657 232.074 30.2799 232.56 30.1076C233.075 29.9284 233.607 29.799 234.147 29.7214L234.531 15.0756L232.347 12.329C233.12 11.8425 233.947 11.4473 234.811 11.1512C235.706 10.8462 236.632 10.6382 237.572 10.5308V29.8006L240.741 30.6084V31.6344L231.148 31.6489ZM236.458 1.58498C236.922 1.99413 237.313 2.4793 237.614 3.01967C237.911 3.52467 238.101 4.08573 238.171 4.66761C237.424 5.61822 236.331 6.23449 235.13 6.38182C234.676 6.00781 234.298 5.54979 234.017 5.03277C233.713 4.5021 233.483 3.93246 233.332 3.33956C233.754 2.89579 234.237 2.5149 234.767 2.20859C235.285 1.89272 235.859 1.68091 236.458 1.58498Z" fill="black"/>
<path d="M283.222 31.6489V30.665C283.621 30.4937 284.056 30.3225 284.528 30.1512C285.079 29.9596 285.645 29.8163 286.221 29.723L286.689 4.71125L284.428 1.80305C285.201 1.31713 286.028 0.92192 286.891 0.625242C287.787 0.31963 288.712 0.111616 289.652 0.00482941V29.8119L292.822 30.6197V31.6457L283.222 31.6489Z" fill="black"/>
<path d="M335.512 31.6489V30.665C335.967 30.4657 336.438 30.2799 336.924 30.1076C337.439 29.9284 337.97 29.799 338.51 29.7214L338.895 15.0756L336.71 12.329C337.483 11.8425 338.31 11.4473 339.174 11.1512C340.07 10.8462 340.995 10.6382 341.935 10.5308V29.8006L345.105 30.6084V31.6344L335.512 31.6489ZM340.822 1.58498C341.286 1.99411 341.676 2.47929 341.977 3.01967C342.275 3.52467 342.464 4.08573 342.535 4.66761C341.787 5.61822 340.694 6.23449 339.494 6.38182C339.04 6.00778 338.662 5.54976 338.381 5.03277C338.077 4.50211 337.846 3.93246 337.696 3.33956C338.118 2.89579 338.601 2.5149 339.131 2.20859C339.649 1.89272 340.223 1.68091 340.822 1.58498Z" fill="black"/>
<path d="M393.754 7.57903V11.0494H400.992L400.777 13.0189H393.754V29.0364L400.95 28.9508C400.556 29.6007 400.048 30.1743 399.451 30.644C398.862 31.109 398.194 31.4641 397.48 31.6925C396.788 31.9167 396.066 32.0323 395.339 32.035C394.291 32.0432 393.255 31.8006 392.32 31.3274C391.42 30.8869 390.712 30.1332 390.328 29.2077L390.842 13.0173H387.759V12.3322C388.62 11.4138 389.542 10.5555 390.52 9.76336C391.534 8.94484 392.616 8.2141 393.754 7.57903Z" fill="black"/>
<path d="M440.779 39.4427L441.034 37.0435L448.614 37.5137C449.272 36.68 449.88 35.8082 450.435 34.9028C450.953 34.0394 451.418 33.1454 451.827 32.2257C452.258 31.2703 452.7 30.1501 453.154 28.8651L459.235 11.4339H461.761L455.157 29.5502C454.228 32.5223 452.73 35.2856 450.747 37.6865C450.036 38.4975 449.16 39.1467 448.177 39.5901C447.195 40.0336 446.128 40.261 445.05 40.257C444.374 40.2521 443.701 40.1806 443.039 40.0438C442.275 39.8858 441.52 39.6851 440.779 39.4427ZM445.874 13.4907C445.164 13.3772 444.468 13.1904 443.796 12.9333C443.139 12.6829 442.502 12.3821 441.892 12.0333V11.0074H450.414V12.0333L445.874 13.4907ZM450.585 31.2628L443.435 11.4339H447.073L453.454 30.5777L450.585 31.2628ZM460.648 13.4907C459.716 13.378 458.794 13.1988 457.887 12.9543C456.975 12.7081 456.081 12.4004 455.21 12.0333V11.0074H463.091V12.0333L460.648 13.4907Z" fill="black"/>
<path d="M557.902 7.57903V11.0494H565.141L564.926 13.0189H557.902V29.0364L565.098 28.9508C564.309 30.2532 563.078 31.2281 561.629 31.6973C560.938 31.9216 560.215 32.0371 559.488 32.0399C558.44 32.0483 557.405 31.8056 556.469 31.3322C555.569 30.8918 554.861 30.138 554.477 29.2125L554.991 13.0221H551.908V12.3371C552.768 11.4183 553.691 10.56 554.669 9.76819C555.683 8.948 556.764 8.21565 557.902 7.57903Z" fill="black"/>
<path d="M617.083 32.0351C615.418 32.0727 613.78 31.618 612.372 30.728C611.009 29.8326 609.925 28.571 609.246 27.0879C608.473 25.3886 608.092 23.5372 608.131 21.6707C608.088 19.6795 608.49 17.7038 609.309 15.8883C610.026 14.3134 611.168 12.9703 612.608 12.0107C614.068 11.0701 615.775 10.5858 617.511 10.6197C619.196 10.5801 620.856 11.0339 622.287 11.9251C623.663 12.8188 624.761 14.0797 625.457 15.5652C626.241 17.2613 626.628 19.1141 626.587 20.9824C626.632 22.9754 626.222 24.9522 625.389 26.7632C624.657 28.3412 623.5 29.6839 622.048 30.6407C620.566 31.5846 618.839 32.0696 617.083 32.0351ZM617.296 29.8071C618.422 29.8312 619.524 29.4767 620.424 28.8005C621.38 28.0301 622.099 27.006 622.5 25.8455C623.031 24.3554 623.285 22.7805 623.25 21.1989C623.289 19.6884 623.042 18.184 622.521 16.7656C622.109 15.6516 621.388 14.6785 620.442 13.9608C619.5 13.2907 618.366 12.9449 617.211 12.9753C616.365 12.988 615.527 13.1324 614.726 13.4034C613.725 13.7395 612.753 14.155 611.818 14.6459L613.616 13.3194C612.918 14.5379 612.378 15.8411 612.012 17.197C611.647 18.5732 611.467 19.9917 611.476 21.4154C611.439 22.9481 611.694 24.4737 612.225 25.9117C612.635 27.0443 613.346 28.0436 614.282 28.8021C615.143 29.4696 616.207 29.824 617.296 29.8071Z" fill="black"/>
<path d="M719.776 30.665L720.248 4.71125L718.106 1.75622C718.894 1.28929 719.726 0.901786 720.591 0.599408C721.438 0.309865 722.314 0.108986 723.203 0V30.0656L719.776 30.665ZM719.776 30.665L721.23 28.4806C722.221 28.8458 723.238 29.139 724.271 29.3579C725.087 29.5331 725.919 29.6262 726.754 29.6358C727.734 29.6916 728.715 29.5263 729.623 29.1521C730.531 28.7779 731.343 28.2045 732 27.4741C733.336 25.7474 733.999 23.5932 733.864 21.4138C733.875 20.0661 733.687 18.7241 733.307 17.4312C732.936 16.2071 732.372 15.0502 731.636 14.0044L733.614 15.9238C732.043 14.4789 730.008 13.6434 727.875 13.5682C726.031 13.64 724.265 14.3349 722.867 15.5393L722.825 14.5974C723.581 13.7797 724.404 13.0274 725.287 12.3484C726.117 11.7136 726.998 11.1479 727.92 10.6568C728.018 10.6271 728.119 10.6129 728.221 10.6148H728.52C730.133 10.577 731.719 11.0404 733.058 11.9412C734.371 12.8616 735.402 14.1293 736.035 15.6023C736.766 17.4004 737.122 19.3288 737.082 21.2693C737.041 23.2098 736.605 25.1216 735.8 26.8876C734.995 28.4885 733.727 29.8094 732.16 30.6779C730.46 31.5798 728.558 32.0294 726.634 31.9834C725.535 31.9757 724.438 31.8675 723.358 31.6602C722.138 31.4323 720.939 31.0994 719.776 30.665Z" fill="black"/>
<path d="M789.922 31.9914C788.308 32.0274 786.72 31.5802 785.362 30.707C784.025 29.8049 782.972 28.5428 782.323 27.0669C781.565 25.3553 781.193 23.4984 781.231 21.627C781.193 19.6667 781.588 17.7223 782.387 15.9319C783.087 14.3608 784.205 13.0122 785.619 12.0334C787.056 11.0762 788.753 10.5834 790.48 10.6213C791.856 10.5889 793.216 10.9235 794.42 11.5907C795.525 12.2261 796.435 13.1512 797.052 14.2662C797.716 15.5013 798.033 16.8931 797.971 18.294L797.844 21.0406C796.245 21.297 794.703 21.5037 793.218 21.661C791.733 21.8182 790.184 21.947 788.572 22.0471C786.956 22.1473 785.137 22.2114 783.113 22.2394V20.2134L794.889 20.0841L794.974 18.2003C795.04 16.8124 794.564 15.4535 793.646 14.41C793.191 13.9299 792.639 13.5533 792.025 13.3058C791.412 13.0582 790.753 12.9455 790.092 12.9753C789.422 12.9825 788.758 13.0914 788.121 13.2984C787.433 13.5135 786.772 13.8079 786.152 14.1757C785.569 15.2308 785.116 16.3528 784.803 17.5169C784.478 18.6887 784.312 19.8989 784.31 21.1149C784.168 23.308 784.847 25.4754 786.216 27.1946C786.865 27.9099 787.665 28.4729 788.557 28.8433C789.449 29.2137 790.412 29.3822 791.376 29.3369C793.588 29.2609 795.754 28.6901 797.716 27.6663L797.971 28.3126C796.873 29.4689 795.566 30.406 794.118 31.0738C792.801 31.6749 791.37 31.9878 789.922 31.9914Z" fill="black"/>
<path d="M504.619 101.496H568.918V145.405H526.051L519.771 129.683H515.442V169.431H519.771L526.051 153.892H568.915V168.3C573.835 167.762 578.73 167.223 583.599 166.685L582.332 100.766L608.092 97.1504V92.995H492.711V127.688H497.473L504.619 101.496Z" fill="black"/>
<path d="M393.73 184.576C396.381 184.372 399.037 184.164 401.698 183.953V171.603H396.935L393.73 184.576Z" fill="black"/>
<path d="M496.323 175.711L495.308 171.603H490.544V176.267C492.476 176.08 494.399 175.894 496.323 175.711Z" fill="black"/>
<path d="M697.918 152.381C697.958 147.473 698.107 142.647 698.415 137.933C698.656 134.27 699.008 130.688 699.411 127.143C700.889 123.67 702.98 120.491 705.584 117.758C706.841 116.338 708.379 115.194 710.1 114.398C711.822 113.602 713.689 113.171 715.585 113.132C720.072 113.132 723.967 115.489 727.269 120.201C731.022 125.814 733.999 131.908 736.119 138.319C737.042 140.934 737.959 143.623 738.874 146.347C743.181 145.678 747.436 145.009 751.621 144.339C749.095 136.328 746.348 128.796 743.381 121.742C740.781 115.222 737.101 109.186 732.496 103.888C730.63 101.643 728.278 99.8527 725.617 98.6524C722.956 97.4521 720.058 96.8734 717.14 96.9601C714.223 97.0469 711.363 97.7968 708.779 99.153C706.194 100.509 703.952 102.436 702.223 104.788C697.915 110.01 694.611 117.418 692.31 127.011C690.335 135.751 689.227 144.664 689.005 153.622C691.998 153.208 694.969 152.795 697.918 152.381Z" fill="black"/>
<path d="M796.217 123.283C796.613 127.651 796.905 132.053 797.092 136.49C800.257 135.898 803.309 135.317 806.249 134.745C806.067 129.329 805.703 123.836 805.155 118.265C804.333 110.047 803.094 101.654 801.44 93.0871L768.337 94.1146V100.282L794.481 108.604C795.171 113.339 795.759 118.217 796.217 123.283Z" fill="black"/>
<path d="M308.189 190.522C313.209 190.215 318.257 189.898 323.334 189.572V153.895H366.196L372.476 169.434H376.805V129.686H372.476L366.196 145.408H323.332V101.496H387.622L394.766 127.694H399.528V93.0014H284.155V97.1569L309.915 100.773L308.189 190.522Z" fill="black"/>
<path d="M698.771 176.86C698.471 173.047 698.248 169.257 698.102 165.489C695.067 165.92 692.008 166.344 688.927 166.76C689.053 171.945 689.353 177.151 689.828 182.381C690.481 189.498 691.515 196.576 692.927 203.583L724.612 202.04V195.871L699.869 188.084C699.431 184.343 699.065 180.602 698.771 176.86Z" fill="black"/>
<path d="M584.277 202.142L583.846 179.745C578.892 180.299 573.913 180.848 568.91 181.392V201.426H502.672L499.477 188.478C496.506 188.762 493.53 189.045 490.547 189.325V209.916H608.088V206.121C603.902 205.158 599.863 204.315 595.971 203.592C592.106 202.872 588.201 202.388 584.277 202.142Z" fill="black"/>
<path d="M797.362 149.66C797.354 154.623 797.238 159.664 797.013 164.783C796.837 168.745 796.528 172.711 796.155 176.676C795.148 179.111 793.924 181.451 792.498 183.667C790.759 186.435 788.542 188.871 785.95 190.863C783.917 192.52 781.399 193.468 778.778 193.561C774.649 193.561 771.079 191.205 768.069 186.494C764.612 180.828 761.795 174.797 759.668 168.51C758.334 164.762 756.999 160.877 755.663 156.855C751.491 157.529 747.241 158.202 742.942 158.871C743.237 159.815 743.533 160.744 743.827 161.699C746.367 169.923 749.14 177.717 752.147 185.08C754.649 191.576 758.142 197.644 762.503 203.069C764.177 205.23 766.324 206.979 768.779 208.181C771.234 209.382 773.932 210.005 776.665 210.002C782.682 210.002 787.934 207.219 792.418 201.655C796.903 196.091 800.355 188.21 802.774 178.012C804.986 168.146 806.177 158.079 806.328 147.969C803.403 148.53 800.414 149.094 797.362 149.66Z" fill="black"/>
<path d="M390.449 197.868L389.573 201.423H341.373C324.382 202.573 307.715 203.618 291.373 204.557C289.013 205.042 286.615 205.552 284.155 206.119V209.901H401.696V196.986C397.936 197.288 394.187 197.582 390.449 197.868Z" fill="black"/>
<path d="M101.202 197.387L93.0805 172.145H86.88L86.0948 197.17C90.8424 197.266 95.8781 197.338 101.202 197.387Z" fill="black"/>
<path d="M96.6994 136.495C102.037 141.08 108.105 144.739 114.652 147.319C121.975 150.372 129.811 153.189 138.158 155.769C146.505 158.35 154.343 160.932 161.671 163.515C167.987 165.629 174.051 168.434 179.752 171.877C184.491 174.872 186.861 178.422 186.861 182.529C186.765 185.14 185.812 187.646 184.148 189.661C182.141 192.243 179.692 194.448 176.914 196.173C176.715 196.299 176.503 196.414 176.301 196.538C182.472 196.37 188.75 196.18 195.136 195.967C200.628 191.532 203.38 186.349 203.389 180.416C203.39 177.69 202.761 175 201.551 172.557C200.342 170.114 198.586 167.983 196.418 166.329C190.954 161.988 184.854 158.514 178.332 156.031C170.929 153.037 163.093 150.278 154.824 147.756C146.556 145.233 138.72 142.679 131.318 140.094C124.879 137.989 118.751 135.029 113.101 131.292C108.362 128.007 105.992 124.134 105.992 119.672C106.033 117.782 106.467 115.921 107.268 114.208C108.069 112.495 109.219 110.968 110.643 109.725C113.396 107.131 116.592 105.052 120.078 103.586C123.642 103.183 127.245 102.834 130.927 102.595C136.354 102.243 141.907 102.067 147.586 102.067C154.989 102.067 162.482 102.36 170.067 102.947C173.828 103.238 177.591 103.602 181.355 104.04L189.181 128.651H195.383L196.934 97.1358C189.888 95.7315 182.772 94.7031 175.616 94.0548C168.471 93.4086 161.368 93.0854 154.306 93.0854C142.759 92.9074 131.23 94.0594 119.947 96.5187C110.304 98.8086 102.855 102.094 97.6025 106.374C92.3498 110.655 89.7229 115.79 89.7218 121.781C89.7329 124.595 90.3639 127.373 91.5699 129.916C92.7759 132.459 94.5272 134.705 96.6994 136.495Z" fill="black"/>
<path d="M114.694 204.433C59.2297 204.433 0.975788 201.817 0.0129133 190.861C-1.0582 178.682 69.4336 164.418 128.759 154.596C212.341 140.762 323.918 127.437 442.926 117.083C561.933 106.728 674.14 100.584 758.87 99.7758C819.004 99.2023 890.918 101.078 891.992 113.257C893.066 125.436 822.571 139.7 763.248 149.52C679.667 163.356 568.088 176.679 449.081 187.034C330.074 197.388 217.862 203.536 133.132 204.344C127.078 204.4 120.901 204.433 114.694 204.433ZM776.812 100.664C771.027 100.664 765.05 100.694 758.879 100.753C674.174 101.561 561.996 107.701 443.01 118.055C324.023 128.41 212.469 141.726 128.917 155.559C88.2985 162.284 56.5172 168.762 34.4551 174.818C6.30875 182.542 0.717299 187.759 0.982251 190.775C1.7561 199.569 49.9225 204.164 133.122 203.366C217.826 202.558 330.004 196.419 448.99 186.064C567.977 175.71 679.531 162.393 763.083 148.56C803.703 141.836 835.483 135.357 857.545 129.3C885.69 121.576 891.281 116.359 891.016 113.342C890.3 105.201 848.961 100.664 776.812 100.664Z" fill="black"/>
<path d="M658.693 166.659C658.712 170.041 657.725 173.353 655.859 176.175C653.993 178.996 651.332 181.2 648.212 182.508C645.092 183.815 641.654 184.166 638.335 183.518C635.015 182.869 631.962 181.249 629.564 178.864C627.166 176.478 625.53 173.434 624.863 170.118C624.196 166.801 624.529 163.362 625.819 160.235C627.11 157.108 629.299 154.434 632.11 152.553C634.922 150.671 638.228 149.667 641.611 149.667C643.848 149.661 646.065 150.095 648.134 150.946C650.204 151.796 652.085 153.046 653.672 154.624C655.258 156.202 656.518 158.077 657.38 160.142C658.241 162.207 658.688 164.421 658.693 166.659Z" fill="#FF605A"/>
<path d="M254.567 139.627C254.58 141.859 253.929 144.044 252.698 145.906C251.468 147.768 249.712 149.222 247.653 150.085C245.595 150.948 243.327 151.18 241.137 150.752C238.946 150.324 236.932 149.256 235.35 147.682C233.767 146.108 232.688 144.1 232.248 141.911C231.808 139.723 232.028 137.454 232.879 135.391C233.731 133.328 235.175 131.564 237.03 130.323C238.885 129.082 241.067 128.419 243.299 128.42C244.774 128.416 246.237 128.702 247.602 129.263C248.967 129.824 250.208 130.649 251.254 131.69C252.3 132.73 253.132 133.967 253.7 135.329C254.269 136.691 254.563 138.151 254.567 139.627Z" fill="#FF605A"/>
</g>
<defs>
<clipPath id="clip0_5_2">
<rect width="892" height="210" fill="white"/>
</clipPath>
</defs>
</svg>
