<svg width="456" height="450" viewBox="0 0 456 450" fill="none" xmlns="http://www.w3.org/2000/svg">
<g clip-path="url(#clip0_6_293)">
<path d="M476.19 24C439.39 5.46 396.06 -1.23999 356.2 9.13001C316.34 19.5 280.73 47.88 265.13 86C257.38 104.93 254.61 125.47 251.28 145.66C246.98 171.72 241.647 197.58 235.28 223.24C231.07 240.18 226.28 257.3 216.8 271.97C178.6 331.11 85.41 325.7 37.46 377.27C22.17 393.73 12.76 414.86 6.38 436.4C-2.26999 465.62 -4.45999 500.89 16.53 522.99C31.82 539.09 55.32 543.76 77.29 546.99C187.56 563.32 301.78 564.4 409 533.63C426.21 528.69 443.72 522.63 457 510.63C474.49 494.79 482.12 470.89 486.7 447.75C499.81 381.66 493.99 313.47 488.13 246.36L469 28.58" fill="black"/>
<path d="M214 179C214.115 178.997 214.229 179.018 214.336 179.062C214.442 179.105 214.539 179.17 214.619 179.253C214.698 179.336 214.76 179.434 214.8 179.542C214.84 179.65 214.857 179.765 214.85 179.88C214.856 180.102 214.781 180.319 214.64 180.49C214.557 180.576 214.458 180.644 214.348 180.691C214.238 180.738 214.119 180.762 214 180.762C213.881 180.762 213.762 180.738 213.652 180.691C213.542 180.644 213.443 180.576 213.36 180.49C213.219 180.319 213.144 180.102 213.15 179.88C213.143 179.765 213.16 179.65 213.2 179.542C213.24 179.434 213.302 179.336 213.382 179.253C213.461 179.17 213.558 179.105 213.664 179.062C213.771 179.018 213.885 178.997 214 179Z" fill="white"/>
<path d="M212.26 146.32C212.478 146.343 212.681 146.447 212.828 146.61C212.975 146.773 213.056 146.985 213.056 147.205C213.056 147.425 212.975 147.637 212.828 147.8C212.681 147.963 212.478 148.067 212.26 148.09C212.041 148.067 211.839 147.963 211.692 147.8C211.545 147.637 211.464 147.425 211.464 147.205C211.464 146.985 211.545 146.773 211.692 146.61C211.839 146.447 212.041 146.343 212.26 146.32Z" fill="white"/>
<path d="M190.1 36.34C190.28 36.8738 190.334 37.4421 190.257 38.0002C190.181 38.5583 189.976 39.0911 189.659 39.557C189.343 40.0228 188.922 40.4091 188.432 40.6854C187.941 40.9618 187.393 41.1208 186.83 41.15C186.136 41.1065 185.467 40.8787 184.89 40.4903C184.313 40.1018 183.851 39.5667 183.55 38.94C183.993 39.2524 184.514 39.4367 185.055 39.4726C185.596 39.5085 186.136 39.3947 186.616 39.1436C187.097 38.8925 187.499 38.5139 187.778 38.0493C188.058 37.5847 188.204 37.0521 188.2 36.51C188.202 36.0426 188.094 35.5812 187.886 35.1628C187.677 34.7444 187.374 34.3804 187 34.1C187.666 34.1757 188.3 34.4215 188.843 34.8139C189.386 35.2062 189.819 35.7318 190.1 36.34Z" fill="white"/>
<path d="M208.25 67.92C208.242 68.1377 208.17 68.3482 208.044 68.5254C207.917 68.7026 207.741 68.8387 207.538 68.9166C207.334 68.9945 207.113 69.0108 206.9 68.9636C206.687 68.9164 206.493 68.8076 206.342 68.6509C206.191 68.4942 206.089 68.2964 206.049 68.0823C206.01 67.8681 206.034 67.647 206.119 67.4465C206.204 67.246 206.346 67.075 206.528 66.9547C206.709 66.8344 206.922 66.7702 207.14 66.77C207.29 66.7685 207.438 66.7975 207.576 66.8553C207.714 66.9131 207.839 66.9984 207.943 67.106C208.046 67.2137 208.127 67.3414 208.18 67.4813C208.233 67.6213 208.257 67.7706 208.25 67.92Z" fill="white"/>
<path d="M197.43 201.05C198.003 201.034 198.567 201.189 199.051 201.496C199.535 201.803 199.917 202.247 200.147 202.771C200.377 203.296 200.446 203.877 200.344 204.441C200.242 205.005 199.974 205.526 199.575 205.937C199.176 206.347 198.663 206.63 198.102 206.747C197.541 206.865 196.958 206.813 196.427 206.598C195.896 206.382 195.442 206.013 195.121 205.538C194.801 205.063 194.63 204.503 194.63 203.93C194.61 203.202 194.855 202.491 195.32 201.93C195.588 201.64 195.915 201.411 196.279 201.259C196.643 201.108 197.036 201.036 197.43 201.05Z" fill="white"/>
<path d="M213.24 74C213.848 73.9881 214.446 74.1576 214.957 74.4869C215.468 74.8163 215.87 75.2905 216.11 75.8491C216.351 76.4077 216.42 77.0253 216.308 77.623C216.196 78.2208 215.908 78.7716 215.482 79.2052C215.055 79.6388 214.509 79.9354 213.913 80.0573C213.317 80.1792 212.699 80.1208 212.136 79.8895C211.574 79.6582 211.093 79.2646 210.755 78.7588C210.418 78.2531 210.238 77.6581 210.24 77.05C210.233 76.6518 210.306 76.2563 210.454 75.8866C210.602 75.5168 210.822 75.1802 211.101 74.8963C211.38 74.6124 211.713 74.3869 212.08 74.233C212.448 74.0791 212.842 73.9999 213.24 74Z" fill="white"/>
<path d="M225 205.06C225 205.325 224.895 205.58 224.707 205.767C224.52 205.955 224.265 206.06 224 206.06C223.735 206.06 223.48 205.955 223.293 205.767C223.105 205.58 223 205.325 223 205.06C222.997 204.806 223.082 204.559 223.24 204.36C223.336 204.262 223.451 204.185 223.579 204.133C223.706 204.081 223.843 204.057 223.98 204.06C224.117 204.057 224.254 204.081 224.381 204.133C224.509 204.185 224.624 204.262 224.72 204.36C224.901 204.548 225.002 204.799 225 205.06Z" fill="white"/>
<path d="M218.64 263C218.403 263.006 218.166 262.963 217.947 262.872C217.727 262.782 217.528 262.647 217.364 262.476C217.199 262.305 217.072 262.101 216.99 261.878C216.909 261.655 216.875 261.417 216.89 261.18C216.885 260.728 217.041 260.288 217.33 259.94C217.493 259.754 217.694 259.606 217.921 259.508C218.147 259.409 218.393 259.362 218.64 259.37C218.877 259.364 219.114 259.407 219.333 259.498C219.553 259.588 219.752 259.723 219.916 259.894C220.081 260.065 220.208 260.269 220.29 260.492C220.371 260.715 220.405 260.953 220.39 261.19C220.398 261.641 220.245 262.08 219.96 262.43C219.795 262.616 219.592 262.764 219.364 262.862C219.135 262.961 218.888 263.008 218.64 263Z" fill="white"/>
<path d="M183.87 36.51C183.859 36.3196 183.887 36.129 183.954 35.9501C184.02 35.7713 184.122 35.6081 184.255 35.471C184.387 35.3338 184.547 35.2255 184.723 35.1531C184.9 35.0806 185.089 35.0455 185.28 35.05C185.47 35.0485 185.658 35.0856 185.833 35.159C186.008 35.2325 186.166 35.3408 186.298 35.4774C186.43 35.614 186.533 35.7759 186.6 35.9534C186.668 36.131 186.698 36.3203 186.69 36.51C186.707 36.7032 186.683 36.8977 186.619 37.0809C186.556 37.264 186.454 37.4316 186.32 37.5724C186.187 37.7132 186.025 37.8242 185.846 37.8979C185.667 37.9716 185.474 38.0064 185.28 38C185.087 38.0018 184.897 37.9638 184.719 37.8885C184.542 37.8132 184.383 37.7022 184.25 37.5623C184.118 37.4225 184.016 37.2569 183.95 37.0758C183.885 36.8947 183.858 36.7021 183.87 36.51Z" fill="white"/>
<path d="M413.33 304.79C413.436 304.809 413.535 304.856 413.617 304.925C413.699 304.994 413.762 305.084 413.8 305.185C413.837 305.286 413.847 305.394 413.83 305.501C413.812 305.607 413.768 305.706 413.7 305.79L413.35 306.21C413.264 306.341 413.144 306.446 413.004 306.515C412.863 306.584 412.706 306.613 412.55 306.6C412.395 306.537 412.255 306.442 412.138 306.322C412.022 306.201 411.932 306.058 411.873 305.901C411.815 305.744 411.79 305.577 411.8 305.41C411.81 305.242 411.854 305.079 411.93 304.93C412.038 304.816 412.176 304.734 412.327 304.693C412.479 304.653 412.639 304.655 412.79 304.7L413.33 304.79Z" fill="white"/>
<path d="M407.43 301.17C407.575 301.525 407.642 301.907 407.627 302.29C407.611 302.673 407.513 303.048 407.34 303.39C406.996 303.987 406.45 304.441 405.8 304.67C405.463 304.802 405.104 304.866 404.742 304.858C404.38 304.85 404.024 304.769 403.694 304.622C403.364 304.474 403.066 304.262 402.819 303.998C402.572 303.734 402.38 303.423 402.254 303.084C402.128 302.745 402.072 302.384 402.087 302.022C402.103 301.661 402.19 301.306 402.344 300.979C402.498 300.652 402.716 300.359 402.985 300.117C403.254 299.875 403.568 299.689 403.91 299.57C404.556 299.333 405.264 299.333 405.91 299.57C406.263 299.712 406.582 299.928 406.844 300.204C407.107 300.48 407.306 300.81 407.43 301.17Z" fill="white"/>
<path d="M461.88 121.23C461.88 122.026 461.564 122.789 461.001 123.351C460.439 123.914 459.676 124.23 458.88 124.23C458.481 124.23 458.086 124.151 457.718 123.996C457.35 123.842 457.017 123.615 456.737 123.33C456.458 123.045 456.238 122.707 456.091 122.336C455.944 121.966 455.872 121.569 455.88 121.17C455.88 120.374 456.196 119.611 456.759 119.049C457.321 118.486 458.084 118.17 458.88 118.17C459.279 118.17 459.674 118.249 460.042 118.404C460.41 118.558 460.743 118.785 461.023 119.07C461.302 119.355 461.522 119.693 461.669 120.063C461.816 120.434 461.888 120.831 461.88 121.23Z" fill="white"/>
<path d="M395.93 247.15C395.982 247.279 396.006 247.417 396.001 247.556C395.997 247.695 395.963 247.831 395.903 247.956C395.843 248.081 395.757 248.192 395.652 248.283C395.546 248.373 395.423 248.44 395.29 248.48C395.164 248.527 395.03 248.549 394.895 248.545C394.761 248.54 394.628 248.509 394.506 248.453C394.383 248.398 394.273 248.318 394.181 248.22C394.089 248.122 394.017 248.006 393.97 247.88C393.923 247.754 393.901 247.62 393.905 247.485C393.91 247.351 393.941 247.218 393.997 247.096C394.052 246.973 394.132 246.863 394.23 246.771C394.328 246.679 394.444 246.607 394.57 246.56C394.821 246.465 395.099 246.465 395.35 246.56C395.485 246.608 395.608 246.685 395.708 246.788C395.809 246.89 395.885 247.014 395.93 247.15Z" fill="white"/>
<path d="M414.79 137.43C414.78 137.916 414.627 138.389 414.35 138.788C414.072 139.188 413.683 139.497 413.231 139.676C412.779 139.855 412.284 139.897 411.808 139.796C411.332 139.695 410.897 139.456 410.557 139.109C410.216 138.762 409.986 138.321 409.894 137.844C409.803 137.366 409.855 136.872 410.043 136.424C410.232 135.975 410.548 135.592 410.953 135.323C411.358 135.054 411.834 134.91 412.32 134.91C412.651 134.903 412.979 134.964 413.285 135.088C413.592 135.213 413.869 135.399 414.1 135.635C414.332 135.872 414.512 136.153 414.631 136.461C414.75 136.77 414.804 137.1 414.79 137.43Z" fill="white"/>
<path d="M405.57 47.68C406.048 47.6771 406.522 47.7707 406.963 47.9554C407.404 48.14 407.803 48.4119 408.137 48.7546C408.47 49.0974 408.731 49.5039 408.903 49.9499C409.076 50.3959 409.156 50.8721 409.14 51.35C409.165 51.8292 409.091 52.3083 408.921 52.7572C408.752 53.2061 408.491 53.6149 408.155 53.9579C407.82 54.3009 407.417 54.5706 406.972 54.75C406.527 54.9294 406.05 55.0145 405.57 55C405.094 55.0029 404.622 54.9098 404.182 54.7264C403.742 54.543 403.344 54.2729 403.011 53.9323C402.678 53.5918 402.416 53.1876 402.243 52.744C402.069 52.3003 401.987 51.8262 402 51.35C401.972 50.8692 402.044 50.3879 402.213 49.9367C402.381 49.4854 402.641 49.0741 402.977 48.7289C403.313 48.3837 403.717 48.1121 404.163 47.9316C404.61 47.751 405.089 47.6653 405.57 47.68Z" fill="white"/>
<path d="M234.43 153.19C234.146 153.565 233.778 153.869 233.357 154.078C232.935 154.288 232.471 154.397 232 154.397C231.529 154.397 231.065 154.288 230.643 154.078C230.222 153.869 229.855 153.565 229.57 153.19C229.36 152.793 229.264 152.344 229.294 151.896C229.324 151.447 229.479 151.016 229.74 150.65L230.27 149.71C230.447 149.409 230.699 149.16 231.001 148.987C231.304 148.813 231.646 148.722 231.995 148.722C232.344 148.722 232.686 148.813 232.989 148.987C233.292 149.16 233.544 149.409 233.72 149.71L234.26 150.65C234.522 151.016 234.676 151.447 234.706 151.896C234.736 152.344 234.64 152.793 234.43 153.19Z" fill="white"/>
<path d="M217.74 99.6C217.952 99.588 218.162 99.6398 218.344 99.7487C218.526 99.8577 218.671 100.019 218.761 100.211C218.851 100.403 218.88 100.618 218.846 100.828C218.813 101.037 218.717 101.231 218.571 101.386C218.425 101.54 218.237 101.647 218.03 101.693C217.823 101.739 217.607 101.722 217.409 101.644C217.212 101.566 217.043 101.43 216.924 101.255C216.804 101.079 216.74 100.872 216.74 100.66C216.735 100.395 216.824 100.136 216.99 99.93C217.085 99.8251 217.2 99.7415 217.33 99.6846C217.459 99.6277 217.599 99.5989 217.74 99.6Z" fill="white"/>
<path d="M270.21 239.32C270.422 239.308 270.632 239.36 270.814 239.469C270.996 239.578 271.141 239.739 271.231 239.931C271.32 240.123 271.35 240.338 271.316 240.548C271.282 240.757 271.187 240.951 271.041 241.106C270.895 241.26 270.707 241.367 270.5 241.413C270.293 241.459 270.077 241.442 269.879 241.364C269.682 241.286 269.513 241.15 269.394 240.975C269.274 240.799 269.21 240.592 269.21 240.38C269.205 240.115 269.294 239.856 269.46 239.65C269.555 239.545 269.67 239.462 269.8 239.405C269.929 239.348 270.069 239.319 270.21 239.32Z" fill="white"/>
<path d="M242.27 100.66C242.458 100.572 242.663 100.528 242.87 100.53C243.174 100.526 243.472 100.608 243.731 100.768C243.989 100.927 244.197 101.157 244.33 101.43C244.427 101.678 244.447 101.949 244.386 102.208C244.325 102.467 244.187 102.701 243.99 102.88C243.864 103.019 243.709 103.131 243.537 103.207C243.365 103.282 243.178 103.321 242.99 103.32C242.639 103.285 242.308 103.139 242.046 102.904C241.783 102.668 241.603 102.355 241.53 102.01C241.46 101.733 241.497 101.44 241.634 101.189C241.772 100.939 241.999 100.75 242.27 100.66Z" fill="white"/>
<path d="M258 156.43C258.19 156.427 258.379 156.463 258.555 156.536C258.731 156.609 258.889 156.717 259.022 156.854C259.154 156.991 259.256 157.154 259.323 157.332C259.39 157.51 259.42 157.7 259.41 157.89C259.423 158.081 259.395 158.272 259.329 158.452C259.264 158.631 259.161 158.795 259.028 158.932C258.896 159.07 258.736 159.178 258.558 159.25C258.381 159.322 258.191 159.356 258 159.35C257.81 159.352 257.622 159.314 257.447 159.241C257.272 159.167 257.114 159.059 256.982 158.923C256.85 158.786 256.747 158.624 256.68 158.447C256.612 158.269 256.582 158.08 256.59 157.89C256.579 157.7 256.607 157.509 256.674 157.33C256.74 157.151 256.842 156.988 256.975 156.851C257.107 156.714 257.267 156.606 257.443 156.533C257.62 156.461 257.809 156.426 258 156.43Z" fill="white"/>
<path d="M352.41 107.34C352.6 107.337 352.789 107.373 352.965 107.446C353.141 107.519 353.299 107.627 353.432 107.764C353.564 107.901 353.666 108.064 353.733 108.242C353.8 108.42 353.83 108.61 353.82 108.8C353.831 108.99 353.803 109.18 353.736 109.358C353.67 109.537 353.567 109.699 353.435 109.836C353.302 109.972 353.142 110.079 352.966 110.151C352.79 110.222 352.6 110.256 352.41 110.25C352.22 110.252 352.032 110.214 351.857 110.141C351.682 110.067 351.524 109.959 351.392 109.823C351.26 109.686 351.157 109.524 351.09 109.347C351.022 109.169 350.992 108.98 351 108.79C350.989 108.6 351.017 108.41 351.084 108.232C351.15 108.053 351.253 107.891 351.385 107.754C351.518 107.618 351.678 107.511 351.854 107.439C352.031 107.368 352.22 107.334 352.41 107.34Z" fill="white"/>
<path d="M266.16 158.16L266.43 158.64C266.524 158.767 266.581 158.917 266.595 159.074C266.609 159.231 266.58 159.389 266.51 159.53C266.398 159.653 266.261 159.751 266.109 159.818C265.956 159.885 265.791 159.92 265.625 159.92C265.459 159.92 265.294 159.885 265.142 159.818C264.989 159.751 264.852 159.653 264.74 159.53C264.671 159.389 264.641 159.231 264.655 159.074C264.669 158.917 264.726 158.767 264.82 158.64L265.09 158.17C265.145 158.075 265.223 157.997 265.318 157.942C265.413 157.888 265.521 157.859 265.63 157.86C265.737 157.861 265.841 157.889 265.934 157.942C266.026 157.994 266.104 158.069 266.16 158.16Z" fill="white"/>
<path d="M262.35 72.32C262.356 72.7757 262.2 73.2188 261.91 73.57C261.663 73.8294 261.344 74.0085 260.994 74.0838C260.645 74.1592 260.28 74.1272 259.949 73.9923C259.617 73.8573 259.334 73.6255 259.136 73.3272C258.939 73.0289 258.835 72.6779 258.84 72.32C258.834 71.8643 258.99 71.4213 259.28 71.07C259.527 70.8106 259.846 70.6315 260.196 70.5562C260.545 70.4809 260.91 70.5128 261.241 70.6478C261.573 70.7827 261.856 71.0145 262.054 71.3128C262.252 71.6111 262.355 71.9621 262.35 72.32Z" fill="white"/>
<path d="M276.26 228.16C276.833 228.146 277.397 228.303 277.88 228.612C278.363 228.92 278.743 229.365 278.971 229.891C279.2 230.416 279.266 230.998 279.162 231.561C279.058 232.125 278.789 232.645 278.388 233.054C277.987 233.463 277.473 233.744 276.912 233.86C276.351 233.976 275.768 233.921 275.238 233.704C274.707 233.487 274.254 233.116 273.936 232.64C273.617 232.164 273.448 231.603 273.45 231.03C273.447 230.321 273.695 229.634 274.15 229.09C274.412 228.789 274.736 228.55 275.101 228.389C275.466 228.229 275.862 228.15 276.26 228.16Z" fill="white"/>
<path d="M356.64 24.63C357.015 24.6255 357.387 24.6996 357.731 24.8478C358.076 24.9959 358.385 25.2147 358.64 25.49C359.088 26.0211 359.329 26.6955 359.32 27.39C359.32 28.1114 359.033 28.8032 358.523 29.3133C358.013 29.8234 357.321 30.11 356.6 30.11C355.879 30.11 355.187 29.8234 354.677 29.3133C354.167 28.8032 353.88 28.1114 353.88 27.39C353.874 26.7008 354.111 26.0316 354.55 25.5C354.815 25.2124 355.139 24.9856 355.499 24.8354C355.86 24.6852 356.249 24.6151 356.64 24.63Z" fill="white"/>
<path d="M387.29 290.86C387.162 291.082 386.96 291.252 386.72 291.34C386.594 291.413 386.453 291.457 386.308 291.47C386.163 291.482 386.017 291.463 385.88 291.414C385.743 291.364 385.618 291.285 385.515 291.182C385.412 291.079 385.332 290.955 385.282 290.819C385.232 290.682 385.212 290.536 385.224 290.391C385.236 290.245 385.28 290.105 385.352 289.978C385.424 289.852 385.523 289.742 385.642 289.658C385.761 289.574 385.897 289.516 386.04 289.49C386.279 289.405 386.541 289.405 386.78 289.49C386.904 289.547 387.015 289.629 387.106 289.73C387.197 289.832 387.267 289.951 387.31 290.08C387.363 290.204 387.388 290.338 387.385 290.472C387.381 290.607 387.349 290.739 387.29 290.86Z" fill="white"/>
<path d="M413.21 162C413.21 162.272 413.102 162.533 412.91 162.725C412.718 162.917 412.457 163.025 412.185 163.025C411.913 163.025 411.652 162.917 411.46 162.725C411.268 162.533 411.16 162.272 411.16 162C411.155 161.735 411.244 161.476 411.41 161.27C411.506 161.161 411.625 161.074 411.758 161.015C411.891 160.956 412.035 160.927 412.18 160.93C412.32 160.925 412.459 160.95 412.589 161.003C412.719 161.056 412.836 161.135 412.933 161.236C413.03 161.337 413.105 161.457 413.153 161.589C413.2 161.72 413.22 161.86 413.21 162Z" fill="white"/>
<path d="M406.77 273C406.561 273.08 406.329 273.08 406.12 273C406.011 272.952 405.913 272.882 405.831 272.795C405.75 272.708 405.687 272.605 405.646 272.493C405.605 272.381 405.587 272.262 405.593 272.143C405.598 272.024 405.628 271.907 405.68 271.8C405.794 271.613 405.966 271.469 406.17 271.39C406.276 271.342 406.39 271.317 406.506 271.316C406.622 271.315 406.737 271.338 406.844 271.384C406.95 271.43 407.046 271.498 407.124 271.584C407.203 271.669 407.263 271.77 407.3 271.88C407.347 271.988 407.371 272.104 407.369 272.222C407.368 272.339 407.341 272.455 407.291 272.561C407.24 272.667 407.168 272.761 407.078 272.837C406.988 272.913 406.883 272.968 406.77 273Z" fill="white"/>
<path d="M307.16 177.2C307.389 177.192 307.615 177.253 307.809 177.374C308.004 177.495 308.157 177.672 308.251 177.881C308.344 178.091 308.372 178.323 308.333 178.549C308.293 178.774 308.187 178.983 308.027 179.148C307.868 179.313 307.664 179.426 307.439 179.474C307.215 179.522 306.982 179.501 306.77 179.416C306.557 179.33 306.375 179.183 306.247 178.993C306.119 178.803 306.05 178.579 306.05 178.35C306.042 178.2 306.064 178.05 306.117 177.91C306.169 177.769 306.25 177.641 306.354 177.533C306.458 177.425 306.584 177.34 306.722 177.282C306.861 177.225 307.01 177.197 307.16 177.2Z" fill="white"/>
<path d="M314.11 27.46C314.612 27.4481 315.107 27.586 315.53 27.8563C315.954 28.1265 316.288 28.5167 316.489 28.9772C316.69 29.4378 316.749 29.9477 316.659 30.4421C316.569 30.9365 316.334 31.3929 315.984 31.7531C315.633 32.1133 315.184 32.3611 314.692 32.4648C314.2 32.5685 313.689 32.5235 313.223 32.3354C312.757 32.1474 312.358 31.8248 312.076 31.4089C311.794 30.993 311.642 30.5025 311.64 30C311.622 29.6676 311.673 29.3351 311.79 29.0234C311.906 28.7118 312.087 28.4276 312.319 28.189C312.551 27.9504 312.83 27.7624 313.138 27.6369C313.446 27.5115 313.777 27.4512 314.11 27.46Z" fill="white"/>
<path d="M311.14 51.57C311.135 51.3049 311.224 51.0465 311.39 50.84C311.487 50.7326 311.606 50.6475 311.739 50.5905C311.872 50.5335 312.015 50.5061 312.16 50.51C312.372 50.498 312.582 50.5498 312.764 50.6587C312.946 50.7677 313.092 50.9287 313.181 51.1211C313.271 51.3134 313.3 51.5281 313.266 51.7376C313.233 51.947 313.137 52.1414 312.991 52.2957C312.845 52.45 312.657 52.5571 312.45 52.6031C312.243 52.6491 312.027 52.6319 311.829 52.5537C311.632 52.4756 311.463 52.34 311.344 52.1647C311.224 51.9893 311.16 51.7821 311.16 51.57H311.14Z" fill="white"/>
<path d="M337.65 142.93C338.025 142.927 338.396 143.001 338.741 143.149C339.085 143.298 339.395 143.516 339.65 143.79C340.091 144.324 340.328 144.997 340.32 145.69C340.32 146.411 340.033 147.103 339.523 147.613C339.013 148.123 338.321 148.41 337.6 148.41C336.879 148.41 336.187 148.123 335.677 147.613C335.167 147.103 334.88 146.411 334.88 145.69C334.874 145.001 335.111 144.332 335.55 143.8C335.816 143.511 336.141 143.283 336.504 143.133C336.867 142.983 337.258 142.914 337.65 142.93Z" fill="white"/>
<path d="M423.29 41.46C423.862 41.4461 424.426 41.6031 424.909 41.911C425.391 42.2189 425.771 42.6637 426 43.1885C426.229 43.7134 426.296 44.2945 426.193 44.8577C426.09 45.4209 425.821 45.9406 425.421 46.3504C425.022 46.7602 424.509 47.0416 423.948 47.1585C423.388 47.2754 422.805 47.2226 422.275 47.0068C421.744 46.7911 421.29 46.4221 420.971 45.9471C420.651 45.4721 420.48 44.9126 420.48 44.34C420.462 43.6104 420.711 42.8994 421.18 42.34C421.446 42.0485 421.773 41.8186 422.138 41.6666C422.502 41.5146 422.895 41.4441 423.29 41.46Z" fill="white"/>
<path d="M436.81 162.08C436.573 162.086 436.338 162.043 436.119 161.953C435.9 161.863 435.702 161.729 435.538 161.559C435.373 161.389 435.246 161.187 435.164 160.965C435.081 160.743 435.046 160.506 435.06 160.27C435.049 159.808 435.205 159.357 435.5 159C435.747 158.741 436.066 158.562 436.416 158.486C436.765 158.411 437.13 158.443 437.461 158.578C437.793 158.713 438.076 158.944 438.274 159.243C438.472 159.541 438.575 159.892 438.57 160.25C438.576 160.706 438.42 161.149 438.13 161.5C437.965 161.686 437.762 161.835 437.534 161.935C437.306 162.035 437.059 162.085 436.81 162.08Z" fill="white"/>
<path d="M455.25 93.19L455.78 94.13C456.039 94.4967 456.192 94.9279 456.222 95.3761C456.252 95.8242 456.158 96.272 455.95 96.67C455.684 97.0643 455.321 97.3824 454.894 97.5928C454.468 97.8033 453.994 97.8988 453.52 97.87C453.045 97.8988 452.572 97.8033 452.146 97.5928C451.719 97.3824 451.355 97.0643 451.09 96.67C450.882 96.272 450.787 95.8242 450.817 95.3761C450.847 94.9279 451.001 94.4967 451.26 94.13L451.79 93.19C451.966 92.8869 452.218 92.6354 452.522 92.4605C452.825 92.2856 453.17 92.1935 453.52 92.1935C453.87 92.1935 454.215 92.2856 454.518 92.4605C454.822 92.6354 455.074 92.8869 455.25 93.19Z" fill="white"/>
<path d="M277.3 259.82C277.292 260.038 277.22 260.248 277.094 260.425C276.967 260.603 276.791 260.739 276.588 260.817C276.384 260.894 276.163 260.911 275.95 260.864C275.737 260.816 275.543 260.708 275.392 260.551C275.241 260.394 275.139 260.196 275.099 259.982C275.06 259.768 275.084 259.547 275.169 259.346C275.254 259.146 275.396 258.975 275.578 258.855C275.759 258.734 275.972 258.67 276.19 258.67C276.34 258.667 276.489 258.695 276.628 258.752C276.766 258.81 276.892 258.895 276.996 259.003C277.1 259.111 277.181 259.239 277.233 259.38C277.286 259.52 277.308 259.67 277.3 259.82Z" fill="white"/>
<path d="M252.71 31.42L253.24 32.36C253.502 32.7233 253.658 33.1525 253.69 33.5994C253.722 34.0463 253.628 34.4933 253.42 34.89C253.134 35.2651 252.766 35.5692 252.344 35.7786C251.921 35.9879 251.456 36.0968 250.985 36.0968C250.514 36.0968 250.049 35.9879 249.626 35.7786C249.204 35.5692 248.835 35.2651 248.55 34.89C248.342 34.4938 248.247 34.0476 248.277 33.601C248.307 33.1543 248.46 32.7247 248.72 32.36L249.26 31.42C249.436 31.1193 249.688 30.8699 249.991 30.6966C250.294 30.5233 250.636 30.4321 250.985 30.4321C251.334 30.4321 251.676 30.5233 251.979 30.6966C252.281 30.8699 252.534 31.1193 252.71 31.42Z" fill="white"/>
<path d="M132.69 436.38C132.868 436.372 133.044 436.418 133.196 436.511C133.348 436.604 133.468 436.741 133.541 436.903C133.614 437.066 133.637 437.246 133.607 437.422C133.576 437.597 133.494 437.759 133.37 437.887C133.246 438.016 133.087 438.104 132.913 438.14C132.738 438.177 132.557 438.16 132.392 438.093C132.228 438.025 132.087 437.91 131.988 437.761C131.89 437.613 131.838 437.438 131.84 437.26C131.833 437.145 131.85 437.03 131.89 436.922C131.93 436.814 131.992 436.716 132.072 436.633C132.151 436.55 132.248 436.485 132.354 436.442C132.461 436.398 132.575 436.377 132.69 436.38Z" fill="white"/>
<path d="M110.52 326.39C110.775 327.019 110.833 327.712 110.684 328.375C110.536 329.037 110.189 329.639 109.69 330.1C109.381 330.439 109.006 330.711 108.588 330.9C108.17 331.089 107.718 331.191 107.26 331.2C106.571 331.153 105.907 330.925 105.334 330.538C104.762 330.152 104.301 329.621 104 329C104.508 329.36 105.117 329.549 105.74 329.54C106.132 329.546 106.521 329.472 106.883 329.322C107.245 329.172 107.573 328.95 107.846 328.669C108.12 328.388 108.333 328.055 108.473 327.688C108.613 327.322 108.676 326.932 108.66 326.54C108.667 326.073 108.564 325.612 108.361 325.192C108.158 324.772 107.86 324.405 107.49 324.12C108.146 324.211 108.768 324.467 109.298 324.864C109.828 325.261 110.248 325.786 110.52 326.39Z" fill="white"/>
<path d="M128.68 358C128.672 358.218 128.6 358.428 128.474 358.605C128.347 358.783 128.171 358.919 127.968 358.997C127.764 359.074 127.543 359.091 127.33 359.044C127.117 358.996 126.923 358.888 126.772 358.731C126.621 358.574 126.519 358.376 126.479 358.162C126.44 357.948 126.464 357.727 126.549 357.526C126.634 357.326 126.776 357.155 126.958 357.035C127.139 356.914 127.352 356.85 127.57 356.85C127.72 356.847 127.869 356.875 128.008 356.932C128.146 356.99 128.272 357.075 128.376 357.183C128.48 357.291 128.561 357.419 128.613 357.56C128.666 357.7 128.688 357.85 128.68 358Z" fill="white"/>
<path d="M133.67 364C134.278 363.988 134.875 364.157 135.386 364.486C135.897 364.815 136.299 365.289 136.54 365.847C136.78 366.405 136.85 367.022 136.738 367.619C136.627 368.217 136.341 368.768 135.915 369.202C135.49 369.636 134.945 369.933 134.349 370.056C133.754 370.179 133.136 370.122 132.573 369.892C132.011 369.663 131.529 369.271 131.19 368.766C130.851 368.262 130.67 367.668 130.67 367.06C130.655 366.659 130.722 366.26 130.867 365.885C131.011 365.511 131.231 365.171 131.511 364.884C131.792 364.598 132.128 364.372 132.5 364.22C132.871 364.068 133.269 363.993 133.67 364Z" fill="white"/>
<path d="M104.3 326.56C104.289 326.37 104.317 326.18 104.384 326.002C104.45 325.823 104.553 325.661 104.685 325.524C104.818 325.388 104.978 325.281 105.154 325.209C105.33 325.138 105.52 325.104 105.71 325.11C105.9 325.107 106.089 325.143 106.265 325.216C106.441 325.289 106.599 325.397 106.732 325.534C106.864 325.671 106.966 325.834 107.033 326.012C107.1 326.19 107.13 326.38 107.12 326.57C107.131 326.76 107.103 326.95 107.036 327.129C106.97 327.307 106.867 327.469 106.735 327.606C106.602 327.742 106.442 327.849 106.266 327.921C106.089 327.992 105.9 328.026 105.71 328.02C105.52 328.022 105.332 327.984 105.157 327.911C104.982 327.838 104.824 327.729 104.692 327.593C104.56 327.456 104.457 327.294 104.39 327.117C104.322 326.939 104.292 326.75 104.3 326.56Z" fill="white"/>
<path d="M121.74 437.17C121.793 437.077 121.87 436.999 121.963 436.946C122.057 436.893 122.163 436.867 122.27 436.87C122.378 436.867 122.486 436.894 122.581 436.947C122.676 436.999 122.755 437.076 122.81 437.17L123.08 437.64C123.174 437.767 123.23 437.917 123.245 438.074C123.259 438.231 123.229 438.389 123.16 438.53C123.047 438.653 122.909 438.751 122.756 438.818C122.603 438.886 122.437 438.92 122.27 438.92C122.103 438.92 121.937 438.886 121.784 438.818C121.631 438.751 121.493 438.653 121.38 438.53C121.315 438.387 121.289 438.229 121.305 438.073C121.321 437.917 121.378 437.767 121.47 437.64L121.74 437.17Z" fill="white"/>
<path d="M116.29 441.43C116.666 441.426 117.038 441.502 117.383 441.652C117.727 441.801 118.037 442.022 118.29 442.3C118.732 442.83 118.969 443.5 118.96 444.19C118.96 444.911 118.673 445.603 118.163 446.113C117.653 446.624 116.961 446.91 116.24 446.91C115.519 446.91 114.827 446.624 114.317 446.113C113.807 445.603 113.52 444.911 113.52 444.19C113.512 443.499 113.754 442.828 114.2 442.3C114.464 442.011 114.788 441.784 115.149 441.634C115.51 441.483 115.899 441.414 116.29 441.43Z" fill="white"/>
<path d="M382.31 411.28C382.298 411.871 382.112 412.445 381.775 412.93C381.439 413.415 380.966 413.791 380.417 414.008C379.868 414.226 379.267 414.277 378.689 414.155C378.111 414.032 377.582 413.742 377.168 413.32C376.755 412.898 376.475 412.364 376.364 411.783C376.253 411.203 376.316 410.603 376.545 410.058C376.773 409.514 377.158 409.049 377.65 408.722C378.142 408.395 378.719 408.22 379.31 408.22C379.711 408.213 380.109 408.288 380.48 408.44C380.852 408.592 381.188 408.818 381.469 409.104C381.749 409.391 381.969 409.731 382.113 410.105C382.258 410.479 382.325 410.879 382.31 411.28Z" fill="white"/>
<path d="M335.22 427.49C335.208 427.976 335.053 428.447 334.775 428.846C334.496 429.244 334.107 429.551 333.654 429.729C333.202 429.907 332.708 429.947 332.232 429.845C331.757 429.743 331.323 429.503 330.983 429.156C330.644 428.808 330.415 428.368 330.324 427.89C330.233 427.413 330.286 426.919 330.474 426.471C330.663 426.024 330.979 425.641 331.384 425.373C331.789 425.104 332.264 424.96 332.75 424.96C333.082 424.951 333.412 425.011 333.72 425.136C334.027 425.261 334.306 425.448 334.537 425.686C334.769 425.923 334.95 426.206 335.067 426.517C335.185 426.827 335.237 427.159 335.22 427.49Z" fill="white"/>
<path d="M326 337.73C326.479 337.728 326.953 337.823 327.394 338.009C327.835 338.195 328.234 338.468 328.567 338.811C328.9 339.155 329.161 339.562 329.333 340.008C329.506 340.455 329.586 340.932 329.57 341.41C329.598 341.891 329.526 342.372 329.357 342.823C329.189 343.275 328.929 343.686 328.593 344.031C328.257 344.376 327.853 344.648 327.407 344.828C326.96 345.009 326.481 345.095 326 345.08C325.52 345.083 325.045 344.989 324.603 344.804C324.161 344.619 323.761 344.346 323.426 344.002C323.092 343.659 322.83 343.251 322.657 342.804C322.485 342.357 322.404 341.879 322.42 341.4C322.393 340.919 322.467 340.437 322.636 339.986C322.806 339.535 323.067 339.123 323.404 338.778C323.74 338.433 324.145 338.162 324.592 337.982C325.039 337.801 325.518 337.715 326 337.73Z" fill="white"/>
<path d="M154.86 443.25C154.574 443.623 154.206 443.926 153.785 444.134C153.364 444.342 152.9 444.45 152.43 444.45C151.96 444.45 151.496 444.342 151.075 444.134C150.653 443.926 150.286 443.623 150 443.25C149.787 442.855 149.69 442.408 149.72 441.961C149.75 441.513 149.906 441.083 150.17 440.72L150.7 439.72C150.876 439.419 151.128 439.17 151.431 438.997C151.734 438.823 152.076 438.732 152.425 438.732C152.774 438.732 153.116 438.823 153.419 438.997C153.721 439.17 153.973 439.419 154.15 439.72L154.69 440.72C154.95 441.085 155.103 441.514 155.133 441.961C155.163 442.408 155.068 442.854 154.86 443.25Z" fill="white"/>
<path d="M162.7 390.71C162.888 390.622 163.093 390.578 163.3 390.58C163.605 390.577 163.904 390.661 164.163 390.822C164.421 390.983 164.629 391.215 164.76 391.49C164.858 391.737 164.877 392.008 164.815 392.266C164.752 392.524 164.611 392.756 164.41 392.93C164.292 393.064 164.148 393.172 163.986 393.248C163.824 393.324 163.649 393.365 163.47 393.37C163.119 393.335 162.788 393.189 162.526 392.954C162.263 392.718 162.083 392.405 162.01 392.06C161.937 391.789 161.968 391.502 162.095 391.252C162.223 391.003 162.438 390.809 162.7 390.71Z" fill="white"/>
<path d="M178.42 446.48C178.61 446.478 178.798 446.516 178.973 446.589C179.148 446.663 179.306 446.771 179.438 446.907C179.57 447.044 179.673 447.206 179.74 447.383C179.808 447.561 179.838 447.75 179.83 447.94C179.843 448.131 179.815 448.322 179.75 448.502C179.684 448.681 179.581 448.845 179.448 448.982C179.316 449.12 179.156 449.228 178.978 449.3C178.801 449.372 178.611 449.406 178.42 449.4C178.23 449.402 178.042 449.364 177.867 449.291C177.692 449.217 177.534 449.109 177.402 448.973C177.27 448.836 177.167 448.674 177.1 448.497C177.032 448.319 177.002 448.13 177.01 447.94C176.999 447.75 177.027 447.559 177.094 447.38C177.16 447.201 177.263 447.038 177.395 446.901C177.527 446.764 177.687 446.656 177.863 446.583C178.04 446.511 178.229 446.476 178.42 446.48Z" fill="white"/>
<path d="M272.84 397.39C273.03 397.388 273.218 397.426 273.393 397.499C273.568 397.573 273.726 397.681 273.858 397.817C273.99 397.954 274.093 398.116 274.16 398.293C274.228 398.471 274.258 398.66 274.25 398.85C274.263 399.041 274.235 399.232 274.17 399.412C274.104 399.591 274.001 399.755 273.869 399.892C273.736 400.03 273.576 400.138 273.398 400.21C273.221 400.282 273.031 400.316 272.84 400.31C272.65 400.312 272.462 400.274 272.287 400.201C272.112 400.127 271.954 400.019 271.822 399.883C271.69 399.746 271.587 399.584 271.52 399.407C271.452 399.229 271.422 399.04 271.43 398.85C271.419 398.66 271.447 398.469 271.514 398.29C271.58 398.111 271.683 397.948 271.815 397.811C271.948 397.674 272.107 397.566 272.283 397.493C272.46 397.421 272.649 397.386 272.84 397.39Z" fill="white"/>
<path d="M186.59 448.22L186.85 448.69C186.947 448.815 187.007 448.965 187.023 449.122C187.039 449.279 187.01 449.438 186.94 449.58C186.828 449.703 186.691 449.801 186.538 449.868C186.386 449.935 186.221 449.97 186.055 449.97C185.889 449.97 185.724 449.935 185.572 449.868C185.419 449.801 185.282 449.703 185.17 449.58C185.101 449.439 185.071 449.281 185.085 449.124C185.099 448.967 185.156 448.817 185.25 448.69L185.52 448.22C185.573 448.127 185.65 448.049 185.743 447.996C185.837 447.943 185.943 447.917 186.05 447.92C186.159 447.917 186.266 447.944 186.361 447.997C186.456 448.049 186.535 448.126 186.59 448.22Z" fill="white"/>
<path d="M182.77 362.38C182.778 362.831 182.625 363.27 182.34 363.62C182.175 363.806 181.972 363.954 181.744 364.052C181.515 364.151 181.268 364.198 181.02 364.19C180.783 364.196 180.546 364.153 180.327 364.062C180.107 363.972 179.908 363.837 179.744 363.666C179.579 363.495 179.452 363.291 179.37 363.068C179.289 362.845 179.255 362.607 179.27 362.37C179.265 361.918 179.421 361.478 179.71 361.13C179.873 360.944 180.074 360.796 180.301 360.698C180.527 360.599 180.773 360.552 181.02 360.56C181.257 360.554 181.494 360.597 181.713 360.688C181.933 360.778 182.132 360.913 182.296 361.084C182.461 361.255 182.588 361.459 182.67 361.682C182.751 361.905 182.785 362.143 182.77 362.38Z" fill="white"/>
<path d="M277.06 314.69C277.444 314.676 277.826 314.746 278.18 314.895C278.534 315.043 278.851 315.267 279.11 315.55C279.558 316.077 279.799 316.749 279.79 317.44C279.79 318.161 279.503 318.853 278.993 319.363C278.483 319.873 277.791 320.16 277.07 320.16C276.349 320.16 275.657 319.873 275.147 319.363C274.637 318.853 274.35 318.161 274.35 317.44C274.341 316.75 274.578 316.08 275.02 315.55C275.278 315.269 275.594 315.046 275.946 314.898C276.298 314.749 276.678 314.678 277.06 314.69Z" fill="white"/>
<path d="M238.88 445C239.017 444.997 239.154 445.021 239.281 445.073C239.409 445.125 239.524 445.202 239.62 445.3C239.787 445.494 239.872 445.745 239.86 446C239.86 446.265 239.755 446.52 239.567 446.707C239.38 446.895 239.125 447 238.86 447C238.595 447 238.34 446.895 238.153 446.707C237.965 446.52 237.86 446.265 237.86 446C237.85 445.748 237.936 445.502 238.1 445.31C238.2 445.205 238.321 445.123 238.456 445.069C238.591 445.016 238.735 444.992 238.88 445Z" fill="white"/>
<path d="M234.54 317.52C235.04 317.51 235.532 317.649 235.953 317.92C236.374 318.191 236.705 318.581 236.904 319.04C237.102 319.5 237.159 320.008 237.068 320.5C236.976 320.992 236.74 321.446 236.39 321.803C236.039 322.161 235.59 322.406 235.1 322.507C234.61 322.609 234.101 322.562 233.638 322.373C233.174 322.183 232.778 321.861 232.498 321.445C232.219 321.03 232.07 320.541 232.07 320.04C232.055 319.709 232.108 319.379 232.226 319.07C232.344 318.76 232.525 318.479 232.756 318.242C232.988 318.006 233.266 317.82 233.573 317.695C233.88 317.571 234.209 317.511 234.54 317.52Z" fill="white"/>
<path d="M231.57 341.62C231.565 341.355 231.654 341.096 231.82 340.89C231.917 340.783 232.036 340.697 232.169 340.64C232.302 340.583 232.445 340.556 232.59 340.56C232.802 340.548 233.012 340.6 233.194 340.709C233.376 340.818 233.521 340.979 233.611 341.171C233.7 341.363 233.73 341.578 233.696 341.788C233.662 341.997 233.567 342.191 233.421 342.346C233.275 342.5 233.087 342.607 232.88 342.653C232.673 342.699 232.457 342.682 232.259 342.604C232.062 342.526 231.893 342.39 231.774 342.215C231.654 342.039 231.59 341.832 231.59 341.62H231.57Z" fill="white"/>
<path d="M258.08 433C258.455 432.993 258.828 433.066 259.173 433.214C259.518 433.363 259.827 433.583 260.08 433.86C260.528 434.387 260.769 435.058 260.76 435.75C260.76 436.471 260.473 437.163 259.963 437.673C259.453 438.183 258.761 438.47 258.04 438.47C257.319 438.47 256.627 438.183 256.117 437.673C255.607 437.163 255.32 436.471 255.32 435.75C255.311 435.06 255.548 434.39 255.99 433.86C256.254 433.573 256.578 433.347 256.94 433.198C257.301 433.049 257.69 432.982 258.08 433Z" fill="white"/>
<path d="M343.72 331.52C344.293 331.506 344.857 331.663 345.34 331.972C345.823 332.28 346.203 332.725 346.431 333.251C346.66 333.776 346.726 334.358 346.622 334.921C346.518 335.485 346.249 336.005 345.848 336.414C345.447 336.823 344.933 337.104 344.372 337.22C343.811 337.336 343.228 337.281 342.698 337.064C342.168 336.847 341.714 336.476 341.396 336C341.077 335.524 340.908 334.963 340.91 334.39C340.904 333.678 341.153 332.986 341.61 332.44C341.874 332.143 342.199 331.907 342.564 331.748C342.928 331.589 343.323 331.511 343.72 331.52Z" fill="white"/>
<path d="M357.24 452.14C357.002 452.146 356.766 452.103 356.547 452.012C356.327 451.922 356.128 451.787 355.964 451.616C355.799 451.445 355.672 451.241 355.59 451.018C355.509 450.795 355.475 450.557 355.49 450.32C355.484 449.867 355.64 449.428 355.93 449.08C356.093 448.894 356.294 448.746 356.521 448.648C356.747 448.549 356.993 448.502 357.24 448.51C357.477 448.503 357.714 448.545 357.934 448.634C358.154 448.723 358.353 448.857 358.519 449.027C358.684 449.197 358.813 449.4 358.896 449.623C358.978 449.845 359.014 450.083 359 450.32C359.01 450.775 358.858 451.218 358.57 451.57C358.403 451.755 358.197 451.902 357.967 452.001C357.738 452.099 357.49 452.147 357.24 452.14Z" fill="white"/>
<path d="M375.68 383.24L376.21 384.19C376.47 384.555 376.623 384.984 376.653 385.431C376.683 385.878 376.588 386.324 376.38 386.72C376.094 387.093 375.727 387.396 375.305 387.604C374.884 387.812 374.42 387.92 373.95 387.92C373.48 387.92 373.016 387.812 372.595 387.604C372.173 387.396 371.806 387.093 371.52 386.72C371.312 386.324 371.217 385.878 371.247 385.431C371.277 384.984 371.43 384.555 371.69 384.19L372.22 383.24C372.395 382.936 372.648 382.684 372.951 382.508C373.255 382.333 373.599 382.24 373.95 382.24C374.301 382.24 374.645 382.333 374.949 382.508C375.252 382.684 375.505 382.936 375.68 383.24Z" fill="white"/>
<path d="M303.79 447.07C303.561 447.078 303.335 447.017 303.141 446.896C302.946 446.775 302.793 446.598 302.699 446.389C302.606 446.179 302.578 445.947 302.617 445.721C302.657 445.496 302.763 445.287 302.923 445.122C303.082 444.957 303.286 444.844 303.51 444.796C303.735 444.748 303.968 444.769 304.18 444.854C304.393 444.94 304.575 445.087 304.703 445.277C304.831 445.467 304.9 445.691 304.9 445.92C304.908 446.07 304.886 446.22 304.833 446.36C304.781 446.501 304.7 446.629 304.596 446.737C304.492 446.845 304.366 446.93 304.228 446.988C304.089 447.045 303.94 447.073 303.79 447.07Z" fill="white"/>
<path d="M173.14 321.47L173.67 322.42C173.932 322.784 174.086 323.214 174.116 323.661C174.146 324.108 174.051 324.554 173.84 324.95C173.554 325.323 173.187 325.626 172.765 325.834C172.344 326.042 171.88 326.15 171.41 326.15C170.94 326.15 170.476 326.042 170.055 325.834C169.633 325.626 169.266 325.323 168.98 324.95C168.772 324.554 168.677 324.108 168.707 323.661C168.737 323.214 168.89 322.785 169.15 322.42L169.69 321.47C169.866 321.169 170.119 320.92 170.421 320.747C170.724 320.573 171.066 320.482 171.415 320.482C171.764 320.482 172.106 320.573 172.409 320.747C172.712 320.92 172.964 321.169 173.14 321.47Z" fill="white"/>
</g>
<defs>
<clipPath id="clip0_6_293">
<rect width="456" height="450" fill="white" transform="matrix(-1 0 0 1 456 0)"/>
</clipPath>
</defs>
</svg>
