<svg width="1069" height="646" viewBox="0 0 1069 646" fill="none" xmlns="http://www.w3.org/2000/svg">
<g clip-path="url(#clip0_90_8836)">
<path d="M856.102 265.361C845.408 262.973 810.641 254.883 778.854 247.509C744.124 239.325 718.437 233.868 714.504 233.652C702.254 233.048 684.639 239.041 675.981 246.861C668.661 253.463 633.841 293.118 629.458 299.986C626.565 304.395 623.273 311.249 620.075 319.549C615.627 331.373 615.147 333.463 613.499 347.883C601.676 454.346 598.255 488.012 598.641 492.927C599.588 504.556 608.037 517.559 618.209 522.995C621.903 524.96 640.144 529.173 703.004 542.672C747.004 552.153 785.246 559.957 788.031 560.055C799.998 560.55 814.545 557.166 824.454 551.453C833.468 546.37 872.41 512.636 878.843 504.392C883.096 498.99 885.204 494.928 890.015 483.569L895.975 469.51L903.068 390.252C906.938 346.686 909.98 308.65 909.79 305.761C909.339 298.763 904.307 288.159 898.773 282.236C892.324 275.31 881.491 271.028 856.102 265.361ZM864.141 306.475C868.831 311.207 871.565 317.351 872.126 324.066C873.378 340.253 858.287 350.685 842.597 344.639C826.623 338.484 819.358 319.871 827.914 307.246C831.766 301.474 835.554 299.251 842.409 298.643C849.941 297.971 858.898 301.206 864.141 306.475ZM682.921 286.036C685.657 297.812 678.012 327.793 671.2 331.667C665.733 334.868 663.624 327.665 665.585 312.715C666.856 303.782 673.492 285.435 676.487 283.015C679.184 280.805 681.947 282.086 682.921 286.036ZM805.57 347.484C810.514 352.964 812.609 357.67 813.206 364.29C813.65 369.336 813.337 371.273 811.179 375.748C807.668 383.169 802.768 386.588 794.466 387.288C788.962 387.767 787.436 387.504 781.532 384.795C771.389 380.129 765.754 372.217 765.069 361.88C764.013 347.718 773.907 338.1 788.68 338.918C793.064 339.091 802.211 343.807 805.57 347.484ZM662.553 309.597C664.219 317.388 662.664 326.212 657.003 341.468L651.922 355.216L648.825 354.239C645.314 353.211 644.484 350.292 644.767 340.544C645.202 329.556 651.401 309.524 655.813 304.834C658.168 302.384 661.491 304.747 662.553 309.597ZM641.675 327.439C644.119 332.929 643.495 342.437 639.97 355.809C636.126 370.574 631.409 377.746 627.199 375.149C621.433 371.52 628.154 335.767 636.165 327.373C639.189 324.314 640.279 324.301 641.675 327.439ZM745.065 388.723C759.673 403.775 753.961 426.486 734.964 429.022C723.645 430.509 710.907 423.001 706.456 412.296C700.078 396.733 708.728 381.328 724.453 380.239C731.011 379.842 740.106 383.563 745.065 388.723ZM672.842 385.155C673.046 387.725 673.599 389.671 673.933 389.367C674.399 389.004 674.421 389.229 673.977 389.817C673.665 390.346 673.083 393.263 672.749 396.384C671.711 405.84 667.903 419.103 664.552 424.419C656.767 437.016 652.164 427.552 655.862 406.123C657.569 396.058 663.609 380.948 666.633 379.297C669.824 377.494 672.282 379.849 672.842 385.155ZM652.008 402.039C651.71 402.249 651.863 403.824 652.321 405.734C654.409 414.12 648.094 440.93 642.337 447.702C640.672 449.768 638.731 450.861 637.001 450.845C635.591 450.843 634.798 450.646 635.191 450.472C635.62 450.204 635.547 448.985 634.965 447.677C634.441 446.501 634.157 442.167 634.404 438.146C634.651 434.126 634.803 430.068 634.716 429.168C634.49 426.374 642.855 403.819 645.08 401.427C646.73 399.68 647.573 399.463 649.769 400.526C651.339 401.239 652.27 401.923 652.008 402.039ZM840.339 495.296C842.849 502.869 827.552 506.507 807.799 503.119C790.779 500.243 784.228 491.329 795.983 487.302C805.885 483.86 822.279 484.979 833.025 489.769C838.303 492.128 839.634 493.182 840.339 495.296ZM631.45 421.303C631.189 421.419 631.472 422.936 631.909 424.621C632.949 427.838 632.492 440.009 631.257 443.216C630.893 444.159 630.922 444.928 631.468 444.922C631.955 444.784 630.24 450.081 627.66 456.776C623.626 467.245 622.71 469.058 620.449 470.136C618.581 471.041 617.621 470.996 616.647 469.863C615.883 469.027 615.011 468.474 614.56 468.517C614.168 468.691 614.109 468.56 614.538 468.292C614.931 468.118 615.025 466.747 614.705 465.323C614.385 463.9 614.341 459.226 614.697 454.922C615.154 448.383 616.011 445.031 620.03 434.882C626.099 419.133 626.303 418.886 629.422 420.088C630.84 420.635 631.807 421.224 631.45 421.303ZM729.553 469.828C732.912 473.505 732.6 475.443 728.064 477.919C717.479 483.696 687.394 479.794 681.759 471.882C679.287 468.438 680.29 466.117 685.168 463.881C696.683 458.787 722.682 462.306 729.553 469.828ZM765.77 500.355C767.624 502.585 765.727 506.945 762.266 508.319C753.848 511.574 736.763 510.839 725.668 506.673C717.125 503.489 715.045 501.28 716.986 497.37C721.493 488.492 757.364 490.617 765.77 500.355ZM799.914 530.624C800.983 533.203 800.969 533.522 798.701 535.464C793.139 540.036 774.942 540.498 761.986 536.372C752.636 533.311 749.99 530.883 751.589 526.734C755.259 517.208 795.376 520.428 799.914 530.624Z" fill="black"/>
<path d="M315.039 81.2433C308.067 80.1813 300.819 80.9626 293.876 83.4863C283.996 87.1527 283.051 88.1966 231.485 156.383L182.746 220.893L177.491 235.657C173.218 247.874 172.2 251.923 171.656 258.97C170.93 269.304 177.189 320.672 180.367 330.454C183.014 338.514 190.279 350.086 196.99 356.896C203.09 363.038 203.185 363.074 285.119 410.459C343.72 444.304 348.57 446.931 353.754 447.846C366.135 449.8 378.763 446.326 387.101 438.492C389.442 436.361 407.803 411.809 427.815 384.103C447.826 356.396 468.354 327.914 473.413 320.982C481.961 309.221 483.008 307.349 487.551 295.561C490.857 286.979 492.929 280.195 493.757 274.666C495.13 266.313 495.872 213.96 494.831 203.703C493.943 195.021 487.057 180.778 479.938 173.053C474.194 166.832 473.133 166.206 443.403 149.552C406.039 128.764 322.011 82.3052 321.692 82.2903C321.597 82.2539 318.507 81.8214 315.039 81.2433ZM336.725 130.324C341.037 134.91 342.688 140.204 341.743 146.88C340.305 157.373 330.171 165.924 318.168 166.931C312.607 167.279 302.77 164.355 298.72 161.062C292.103 155.696 289.216 145.161 292.101 137.391C295.19 129.375 305.498 122.624 315.364 122.093C322.372 121.653 331.977 125.462 336.725 130.324ZM469.971 233.007C469.587 242.174 456.438 265.593 448.558 271.113C444.29 274.017 441.368 273.433 441.105 269.324C440.734 262.682 451.578 239.892 458.535 232.824C465.731 225.416 470.341 225.568 469.971 233.007ZM352.306 199.473C356.807 204.132 358.552 208.054 358.778 213.665C359.049 225.358 348.377 235.868 334.688 237.308C329.242 237.918 318.758 234.42 314.476 230.603C307.51 224.453 305.342 215.711 308.54 207.412C315.103 190.662 339.64 186.144 352.306 199.473ZM471.552 258.203C470.636 258.608 470.178 259.514 470.345 260.77C471.48 269.656 456.943 296.114 448.081 301.365C444.388 303.624 441.458 302.495 441.56 298.852C441.523 294.722 448.02 278.704 452.462 271.967C457.252 264.607 464.1 257.822 467.066 257.449C468.324 257.284 469.436 257.496 469.574 257.982C469.843 258.411 470.497 258.121 471.203 257.418C471.908 256.715 472.562 256.426 472.737 256.818C472.911 257.21 472.468 257.797 471.552 258.203ZM470.407 291.879C470.124 297.403 462.616 313.789 456.684 321.576C454.06 325.006 451.589 328.602 451.167 329.415C450.746 330.227 450.339 330.72 450.128 330.422C450.048 330.066 448.943 330.399 447.751 331.239C444.639 333.398 441.789 331.216 441.898 326.709C442.042 322.108 448.191 308.122 454.035 299.435C462.569 286.585 470.791 282.713 470.407 291.879ZM370.621 271.95C373.886 275.591 374.817 277.683 375.333 282.539C376.542 292.644 372.042 300.658 362.555 305.559C346.962 313.631 327.106 305.438 324.109 289.553C319.751 266.212 354.065 253.223 370.621 271.95ZM413.44 308.162C413.847 309.077 412.154 314.598 408.483 324.123C405.431 332.045 402.771 338.385 402.691 338.029C402.48 337.732 400.255 340.124 397.573 343.423C385.608 358.416 379.566 353.814 387.009 335.344C390.955 325.384 399.249 312.875 404.737 308.491C406.802 306.796 408.416 305.143 408.205 304.845C408.125 304.489 409.012 304.723 410.357 305.458C411.738 306.098 413.091 307.377 413.44 308.162ZM414.25 339.018C414.52 340.855 411.634 348.624 405.093 364.192C404.344 365.853 403.516 367.158 403.138 367.012C402.665 366.83 402.055 367.57 401.655 368.607C399.62 373.888 388.81 382.504 386.287 380.882C379.554 376.663 397.893 340.621 409.372 335.622C411.894 334.427 413.85 335.831 414.25 339.018ZM231.922 287.932C238.328 293 244.85 301.146 246.094 305.524C247.243 309.866 244.677 312.018 238.839 311.393C226.843 310.129 204.747 291.975 203.851 282.748C203.618 279.409 205.734 277.3 209.303 277.051C212.931 276.932 225.858 283.105 231.922 287.932ZM414.632 368.734C414.262 376.173 405.409 394.64 398.518 402.383C397.406 403.579 396.781 404.638 397.064 404.747C397.348 404.856 396.621 405.334 395.443 405.855C394.266 406.376 393.284 407.515 393.277 408.378C393.27 409.242 393.066 409.488 392.703 409.023C392.339 408.558 391.605 408.492 391.009 408.912C390.544 409.275 389.228 409.309 388.188 408.908C382.422 406.687 388.84 388.906 401.277 372.686C408.539 363.137 415.038 361.2 414.632 368.734ZM330.004 344.681C342.19 354.467 347.142 364.715 340.701 366.782C332.632 369.413 311.307 356.864 303.49 344.753C299.708 339.072 299.49 335.414 302.609 333.799C303.954 333.126 306.055 332.744 307.298 332.899C312.234 333.609 323.635 339.519 330.004 344.681ZM280.515 340.991C291.662 348.969 298.271 358.014 296.418 362.824C295.618 364.899 294.688 365.623 292.543 365.555C288.857 365.543 278.838 361.682 273.109 357.958C266.849 353.921 255.935 342.242 255.135 338.685C253.047 328.891 265.116 329.967 280.515 340.991ZM232.045 337.478C244.601 345.457 253.574 356.821 251.154 361.412C249.227 365.003 245.447 364.954 236.875 361.001C224.5 355.366 211.318 342.813 210.321 335.822C209.87 333.049 210.015 332.672 212.312 331.499C216.478 329.421 222.389 331.266 232.045 337.478Z" fill="black"/>
<path d="M810.571 584.662C806.427 584.149 800.597 584.068 797.667 584.347C790.644 585.107 696.512 607.973 690.958 610.273C680.206 614.795 673.577 626.646 674.872 639.06C678.235 669.491 689.062 745.906 690.539 749.399C693.084 755.471 698.021 761.814 703.416 765.842C707.161 768.801 710.81 770.316 723.846 774.798C740.888 780.715 752.107 782.871 762.517 782.334C771.801 781.904 870.819 760.162 874.585 757.714C881.447 753.427 887.422 743.273 887.436 735.913C887.414 734.28 883.994 709.351 879.752 680.638C871.151 622.952 870.278 619.583 861.117 609.555C856.711 604.932 853.824 602.845 843.122 597.097C826.944 588.372 819.95 585.677 810.571 584.662ZM827.842 614.496C833.113 620.534 836.205 636.456 833.276 642.367C831.444 645.994 829.016 645.817 826.238 642.039C825.184 640.549 823.926 639.306 823.286 639.276C822.777 639.189 822.661 638.927 823.184 638.696C823.708 638.464 823.94 637.579 823.664 636.606C823.177 635.335 822.646 635.022 821.054 635.492C819.462 635.961 819.367 635.925 820.712 635.252C822.617 634.253 822.878 631.321 820.908 631.645C820.232 631.709 820.043 631.636 820.472 631.368C820.995 631.137 821.104 628.038 820.718 624.531C819.896 616.524 821.829 610.662 824.853 611.828C825.326 612.01 826.62 613.158 827.842 614.496ZM854.067 627.85C856.474 630.619 858.554 635.645 859.972 641.823C860.532 644.314 861.216 646.202 861.514 645.992C861.87 645.912 861.936 646.587 861.703 647.473C861.47 648.358 860.831 651.144 860.279 653.422C859.748 655.926 858.724 658.022 857.938 658.369C855.714 659.353 851.344 653.229 849.373 646.512C848.442 643.012 847.184 640.361 846.66 640.593C846.042 640.788 846.115 640.599 846.747 640.085C847.285 639.534 847.518 637.241 847.241 634.86C846.63 629.967 847.436 627.028 849.792 625.986C851.755 625.118 851.566 625.045 854.067 627.85ZM795.57 618.524C802.514 625.857 799.04 640.223 789.132 644.528C774.606 650.954 762.514 634.164 772.153 620.981C778.375 612.439 788.684 611.321 795.57 618.524ZM838.792 686.084C839.992 687.196 840.253 687.081 840.086 685.825C839.904 684.888 840.013 684.605 840.399 685.295C840.69 685.949 840.741 686.943 840.523 687.509C840.363 688.206 840.784 688.802 841.519 688.868C842.217 689.029 842.391 689.421 841.926 689.783C841.366 690.109 841.359 690.973 841.839 691.699C842.355 692.331 842.995 693.769 843.141 694.8C843.381 695.867 843.883 698.227 844.283 700.006C845.65 705.19 844.997 713.928 843.194 715.508C841.26 717.146 838.861 716.33 836.847 713.387C836.003 712.196 834.447 711.163 833.393 711.082C831.794 711.007 831.83 710.913 833.291 710.501C834.884 710.031 834.593 709.378 832.593 708.932C832.215 708.786 832.302 708.278 832.84 707.728C833.284 707.14 832.796 704.461 831.669 701.752C830.506 699.138 829.909 696.742 830.396 696.605C830.789 696.431 830.956 694.871 830.781 693.07C830.323 689.753 832.198 683.76 833.768 683.065C834.778 682.696 836.029 683.395 838.792 686.084ZM865.628 698.699C866.413 699.76 867.497 700.611 867.889 700.437C868.376 700.3 868.434 700.431 868.136 700.641C867.707 700.909 868.217 703.813 869.148 707.313C871.948 716.948 871.992 724.439 869.528 727.172C868.212 728.614 864.81 727.303 863.043 724.564C862.199 723.373 861.08 722.616 860.556 722.848C860.127 723.116 860.011 722.855 860.382 722.456C861.232 721.376 859.079 713.722 858.011 713.96C857.523 714.098 857.385 713.611 857.64 712.951C857.952 712.422 857.952 709.605 857.821 706.847C857.595 704.052 857.936 700.068 858.488 697.79C859.528 693.966 859.658 693.908 861.876 695.196C863.09 695.989 864.784 697.508 865.628 698.699ZM831.548 719.252C831.155 719.426 830.508 718.851 830.101 717.936C829.613 716.665 829.744 716.607 830.85 717.683C831.686 718.33 831.94 719.078 831.548 719.252ZM840.026 728.801C839.633 728.975 838.746 728.741 838.194 728.203C837.547 727.629 837.939 727.455 838.979 727.856C840.055 728.162 840.513 728.664 840.026 728.801ZM737.186 705.529C745.388 714.105 740.526 730.102 728.814 733.171C723.66 734.434 716.782 732.001 714.186 727.751C710.536 722.012 710.208 718.637 712.715 712.129C715.295 705.433 718.065 703.035 725.001 701.375C729.632 700.343 733.485 701.611 737.186 705.529ZM807.632 750.328C808.28 753.719 783.293 758.279 777.149 755.912C776.393 755.62 776.044 754.836 776.335 754.082C777.389 751.347 791.093 748.179 800.726 748.533C807.065 748.702 807.349 748.811 807.632 750.328Z" fill="black"/>
<path d="M198.746 395.157C197.162 394.763 190.727 393.15 184.671 391.683C176.143 389.588 171.715 388.965 166.212 389.444C152.573 390.47 149.534 392.441 104.413 429.534C82.0007 447.976 62.7367 464.165 61.6245 465.361C60.4759 466.651 58.5498 470.241 57.2779 473.542C54.8068 479.955 54.8442 488.309 57.5275 493.459C60.1163 498.572 117.488 577.867 122.141 582.693C130.954 591.938 138.196 596.244 158.597 604.431L177.108 611.888L184.414 611.238C196.773 610.151 199.681 608.239 236.159 577.238C292.01 529.765 288.964 532.599 291.69 525.526C294.43 518.133 294.414 510.004 291.571 504.143C288.146 496.974 232.519 415.969 227.982 411.404C220.224 403.649 209.747 397.879 198.746 395.157ZM192.504 417.555C192.461 418.513 191.16 421.044 189.648 423.278C188.077 425.38 186.457 427.897 186.035 428.709C185.613 429.521 184.959 429.811 184.596 429.346C184.268 428.787 183.898 429.185 183.912 430.274C183.963 431.268 183.651 431.798 183.287 431.333C182.596 430.308 173.284 435.602 173.153 437.068C173.16 437.612 172.899 437.728 172.666 437.205C172.433 436.682 170.87 436.513 169.125 436.815C158.824 438.478 164.588 426.618 177.818 419.044C181.999 416.648 182.573 416.002 181.984 414.151C181.395 412.299 181.525 412.241 182.507 413.919C183.431 415.466 184.092 415.721 186.833 415.369C190.962 414.794 192.475 415.377 192.504 417.555ZM163.481 411.462C162.972 414.19 153.609 422.713 147.837 425.58C138.088 430.596 132.388 429.05 136.553 422.748C137.789 420.95 138.632 419.325 138.516 419.063C138.436 418.708 138.974 418.157 139.89 417.752C140.806 417.346 143.786 415.245 146.578 413.072C149.333 410.992 153.309 408.842 155.483 408.272C159.925 407.167 163.989 408.733 163.481 411.462ZM221.028 445.226C227.689 453.858 224.215 466.816 214.009 471.331C207.989 473.994 203.292 472.943 198.712 467.928C192.24 460.777 192.944 450.217 200.417 443.782C206.829 438.13 216.128 438.788 221.028 445.226ZM136.231 467.248C135.577 468.945 134.88 470.193 134.763 469.931C134.45 469.053 125.131 478.026 125.371 479.093C125.437 479.768 125.211 479.79 124.79 479.194C124.004 478.133 117.883 481.623 118.24 482.952C118.414 483.344 118.283 483.402 118.014 482.974C117.84 482.581 116.466 482.485 115.172 482.745C110.802 483.66 108.992 483.288 108.061 481.196C107.014 478.843 108.577 476.196 114.501 470.68C125.66 460.033 139.865 457.817 136.231 467.248ZM108.087 456.62C107.622 458.39 105.74 461.022 103.769 462.754C101.894 464.523 100.578 465.965 100.862 466.075C101.24 466.22 99.1899 467.597 96.5582 469.074C93.7957 470.609 91.6367 472.268 91.8112 472.66C91.9494 473.147 91.8186 473.204 91.644 472.812C91.3386 472.478 89.761 472.628 88.0744 473.061C86.4459 473.625 84.0395 473.673 82.9053 473.236C78.8411 471.67 80.6072 467.368 88.0947 460.614C90.4354 458.483 92.42 456.431 92.4708 456.018C92.558 455.51 92.8779 455.525 93.2414 455.99C93.605 456.455 94.9717 456.007 96.3311 455.014C99.3117 452.913 105.782 451.616 107.658 452.663C108.436 453.18 108.589 454.755 108.087 456.62ZM204.014 547.413C205.425 548.823 207.235 552.012 208.021 554.481C209.126 558.373 209.054 559.97 207.091 565.062C204.548 571.664 201.778 574.063 194.748 575.686C191.505 576.495 189.848 576.289 186.685 574.637C181.705 572.068 179.341 568.342 178.635 562.004C177.573 552.93 184.529 544.455 193.435 543.879C198.866 543.589 200.604 544.15 204.014 547.413ZM122.099 537.728C131.181 547.401 134.89 556.087 129.03 553.829C123.548 551.717 108.496 531.62 110.953 529.751C112.48 528.606 115.65 530.802 122.099 537.728Z" fill="black"/>
</g>
<defs>
<clipPath id="clip0_90_8836">
<rect width="911.62" height="606.402" fill="white" transform="translate(218.037) rotate(21.0731)"/>
</clipPath>
</defs>
</svg>
